<svg height="512" viewBox="0 0 384 384" width="512" xmlns="http://www.w3.org/2000/svg"><path fill="#fff" d="M192 0C86.129 0 0 86.129 0 192s86.129 192 192 192 192-86.129 192-192S297.871 0 192 0zm0 352c-88.223 0-160-71.777-160-160S103.777 32 192 32s160 71.777 160 160-71.777 160-160 160zm0 0"/><path fill="#fff" d="M224 288h-16V160c0-8.832-7.168-16-16-16h-24c-8.832 0-16 7.168-16 16s7.168 16 16 16h8v112h-16c-8.832 0-16 7.168-16 16s7.168 16 16 16h64c8.832 0 16-7.168 16-16s-7.168-16-16-16zm0 0M192 112c13.23 0 24-10.77 24-24s-10.77-24-24-24-24 10.77-24 24 10.77 24 24 24zm0 0"/></svg>