<svg xmlns="http://www.w3.org/2000/svg" width="1000" height="1000">
  <path fill="none" d="M-1-1h582v402H-1z"/>
  <g>
    <path d="M778.19995 266.83289c-22.89996 9.20004-45.79993 22.89993-78 27.59998-68.89996-87.19997-243.20001-18.30002-211.09991 110.09998-119.30005-9.09998-192.70007-64.19995-252.30005-128.39999-32.10004 55-4.60004 142.20004 36.69995 165.10007-18.39996 0-36.69995-4.5-50.39996-13.80005 4.5 73.5 41.29999 105.6001 96.29999 123.90002-13.79999 0-32.19995 4.59998-50.5 0 18.30005 50.5 55 82.5 114.70007 87.19995-41.30005 36.70007-119.30011 59.70007-179.00006 50.50012 55.10004 32.09985 114.69995 59.59985 197.29999 54.99988 201.90009-9.09998 334.99994-153.09998 339.50006-364.19995 0 0 39.79993-40.70004 54-62.59998-20 7.59998-44.90002 13.80002-67.70007 18.39999 23-18.30002 41.40015-36.50006 50.5-68.80002z"/>
    <path stroke="null" d="M500.00037 83.88882c229.4433 0 416.11121 186.66748 416.11121 416.11133S729.44367 916.11139 500.00037 916.11139 83.88887 729.44385 83.88887 500.00015 270.55628 83.88882 500.00037 83.88882zm0-83.22229C224.24312.66653.66657 224.2431.66657 500.00015s223.57655 499.33334 499.3338 499.33334 499.33307-223.57642 499.33307-499.33334S775.75733.66653 500.00037.66653z"/>
  </g>
</svg>