<svg width="511.999" height="511.999" xmlns="http://www.w3.org/2000/svg"><path fill="none" d="M-1-1h582v402H-1z"/><g><path fill="#fff" d="M255.5 1.074C114.655 1.074.074 115.654.074 256.5S114.654 511.925 255.5 511.925 510.925 397.345 510.925 256.5 396.345 1.074 255.5 1.074zm0 468.28c-117.367 0-212.855-95.488-212.855-212.854S138.133 43.645 255.5 43.645 468.354 139.133 468.354 256.5 372.866 469.354 255.5 469.354zm0 0"/><g stroke="null" fill="#fff"><path d="M255.998 221.629c-18.951 0-34.37 15.419-34.37 34.37s15.419 34.37 34.37 34.37 34.37-15.418 34.37-34.37-15.417-34.37-34.37-34.37z"/><path d="M466.027 246.753c-.956-1.094-23.848-27.106-60.879-53.317-49.611-35.115-101.186-53.677-149.15-53.677-47.962 0-99.537 18.561-149.149 53.677-37.03 26.21-59.922 52.223-60.878 53.317a14.052 14.052 0 000 18.492c.957 1.095 23.849 27.107 60.88 53.318 49.61 35.115 101.186 53.677 149.148 53.677 47.963 0 99.539-18.561 149.15-53.677 37.03-26.21 59.923-52.223 60.879-53.318a14.05 14.05 0 000-18.492zm-210.03 87.946c-43.393 0-78.698-35.304-78.698-78.7s35.304-78.7 78.698-78.7c43.398 0 78.701 35.305 78.701 78.7s-35.303 78.7-78.7 78.7z"/></g></g></svg>